<svg xmlns="http://www.w3.org/2000/svg" viewBox="0 0 512 512" role="img" aria-labelledby="title desc">
  <title id="title">Skynote cat icon</title>
  <desc id="desc">A warm yellow Skynote cat app icon.</desc>
  <rect width="512" height="512" rx="112" fill="#fff4d9"/>
  <rect x="18" y="18" width="476" height="476" rx="96" fill="none" stroke="#e8c78a" stroke-width="10"/>
  <circle cx="386" cy="89" r="38" fill="#f7b53f"/>
  <circle cx="386" cy="89" r="58" fill="#f7b53f" opacity=".16"/>
  <path d="M70 151c26-24 62-20 80 5 24-29 72-25 88 10 28-3 52 17 52 43 0 30-24 50-58 50H104c-35 0-60-23-60-53 0-26 11-43 26-55Z" fill="#fff9ed" opacity=".92"/>
  <path d="M94 314c-46 0-68-25-62-57 5-27 30-38 50-23 17 14 10 43-14 43" fill="none" stroke="#8a572c" stroke-width="24" stroke-linecap="round"/>
  <path d="M128 224c-24 38-35 91-29 137 11 82 75 112 145 112s134-30 145-112c6-46-5-99-29-137l27-83c5-15-12-27-25-18l-76 48a192 192 0 0 0-81 0l-76-48c-13-9-30 3-25 18l24 83Z" fill="#fff0c7" stroke="#8a572c" stroke-width="14" stroke-linejoin="round"/>
  <path d="M139 178l51 33-41 33-10-66Zm210 0-51 33 41 33 10-66Z" fill="#f7bd7a" opacity=".74"/>
  <path d="M176 298c18 18 39 18 57 0M255 298c18 18 39 18 57 0" fill="none" stroke="#5f3a22" stroke-width="14" stroke-linecap="round"/>
  <path d="M239 319c9 8 24 8 33 0-3 16-30 16-33 0Z" fill="#a45e43"/>
  <path d="M256 327c-9 18-25 28-46 28M256 327c9 18 25 28 46 28" fill="none" stroke="#5f3a22" stroke-width="11" stroke-linecap="round"/>
  <path d="M169 390c22 19 63 30 87 30s65-11 87-30" fill="none" stroke="#f4c279" stroke-width="18" stroke-linecap="round" opacity=".7"/>
</svg>
