<svg xmlns="http://www.w3.org/2000/svg" viewBox="0 0 220 220" role="img" aria-labelledby="title desc">
  <title id="title">Tired mood cat</title>
  <desc id="desc">A sleepy cat yawning on a moon pillow.</desc>
  <rect width="220" height="220" rx="42" fill="#fff2d4"/>
  <path d="M157 36c-18 22-12 54 14 68-35 5-61-20-57-51 2-20 18-34 43-17Z" fill="#d9b77a"/>
  <path d="M45 164c18-42 54-70 98-64 37 5 61 34 63 69 1 14-10 24-25 24H68c-19 0-30-13-23-29Z" fill="#f2d19d" stroke="#765233" stroke-width="5" stroke-linejoin="round"/>
  <path d="M80 106l20-35 21 34M145 106l21-34 19 39" fill="#f2d19d" stroke="#765233" stroke-width="5" stroke-linejoin="round"/>
  <path d="M89 134c10 5 20 5 30 0M141 134c10 5 20 5 30 0" fill="none" stroke="#4e3524" stroke-width="5" stroke-linecap="round"/>
  <path d="M122 148c12 10 24 10 36 0" fill="none" stroke="#4e3524" stroke-width="5" stroke-linecap="round"/>
  <ellipse cx="139" cy="157" rx="11" ry="8" fill="#a45e43" opacity=".75"/>
  <path d="M50 178c38 16 94 18 143 0" fill="none" stroke="#fff2d1" stroke-width="12" stroke-linecap="round" opacity=".9"/>
  <path d="M34 88h26l-23 25h28M61 51h20L63 70h23" fill="none" stroke="#8e6c9c" stroke-width="6" stroke-linecap="round" stroke-linejoin="round" opacity=".7"/>
</svg>
