<svg xmlns="http://www.w3.org/2000/svg" viewBox="0 0 220 220" role="img" aria-labelledby="title desc">
  <title id="title">Low mood cat</title>
  <desc id="desc">A quiet cat resting while small rain falls.</desc>
  <rect width="220" height="220" rx="42" fill="#fff1cf"/>
  <path d="M52 57c13-15 35-11 43 6 14-14 40-10 47 9 15 1 27 13 27 28 0 18-15 30-36 30H66c-21 0-35-13-35-31 0-18 9-32 21-42Z" fill="#f6f8fb" opacity=".88"/>
  <path d="M58 151c12-35 39-57 76-57 40 0 70 29 75 70 2 17-8 28-28 28H75c-22 0-24-22-17-41Z" fill="#f4d09b" stroke="#745133" stroke-width="5" stroke-linejoin="round"/>
  <path d="M89 101l14-31 23 25M151 100l21-28 4 41" fill="#f4d09b" stroke="#745133" stroke-width="5" stroke-linejoin="round"/>
  <path d="M94 132c9-5 18-5 27 0M139 132c9-5 18-5 27 0" fill="none" stroke="#4d3829" stroke-width="5" stroke-linecap="round"/>
  <path d="M130 145c-5 6-13 6-18 0" fill="none" stroke="#4d3829" stroke-width="4" stroke-linecap="round"/>
  <path d="M74 169c28 8 79 8 111-3" fill="none" stroke="#fff2d6" stroke-width="10" stroke-linecap="round" opacity=".85"/>
  <path d="M39 129l-8 18M72 113l-8 18M184 118l-8 18M199 86l-8 18" fill="none" stroke="#8da9bc" stroke-width="5" stroke-linecap="round" opacity=".78"/>
</svg>
