<svg xmlns="http://www.w3.org/2000/svg" viewBox="0 0 220 220" role="img" aria-labelledby="title desc">
  <title id="title">Anxious mood cat</title>
  <desc id="desc">A small cat holding its paws with star sparks nearby.</desc>
  <rect width="220" height="220" rx="42" fill="#fff3d8"/>
  <path d="M48 69l7 14 15 3-12 10 2 15-13-8-14 7 4-15-11-11 15-2 7-13ZM176 39l5 11 12 2-9 8 1 12-10-6-11 5 3-12-8-9 12-1 5-10ZM183 129l6 11 12 2-9 9 2 12-11-6-10 6 2-12-9-9 12-2 5-11Z" fill="#f4aa43" opacity=".8"/>
  <path d="M55 155c5-44 34-73 70-73 37 0 65 29 70 73 3 22-12 39-34 39H89c-22 0-37-17-34-39Z" fill="#f6cca2" stroke="#764a2d" stroke-width="5" stroke-linejoin="round"/>
  <path d="M80 94l23-35 16 36M147 94l19-34 21 38" fill="#f6cca2" stroke="#764a2d" stroke-width="5" stroke-linejoin="round"/>
  <path d="M95 127c8-7 17-7 25 0M138 127c8-7 17-7 25 0" fill="none" stroke="#4f2f20" stroke-width="5" stroke-linecap="round"/>
  <path d="M122 143c4 5 10 5 14 0M129 151c-10 10-22 10-32 0M129 151c10 10 22 10 32 0" fill="none" stroke="#4f2f20" stroke-width="4" stroke-linecap="round"/>
  <path d="M88 163c17-9 32-9 43 3M131 166c12-12 27-14 43-4" fill="none" stroke="#fff2d8" stroke-width="10" stroke-linecap="round"/>
</svg>
