<svg xmlns="http://www.w3.org/2000/svg" viewBox="0 0 220 220" role="img" aria-labelledby="title desc">
  <title id="title">Bright mood cat</title>
  <desc id="desc">A happy cat sunbathing.</desc>
  <rect width="220" height="220" rx="42" fill="#fff4d3"/>
  <circle cx="169" cy="50" r="24" fill="#f6b13a"/>
  <circle cx="169" cy="50" r="38" fill="#f6b13a" opacity=".16"/>
  <path d="M51 151c18-22 26-62 51-70 8-3 24-3 32 0 25 8 33 48 51 70 12 14 5 41-18 41H69c-23 0-30-27-18-41Z" fill="#ffe0a6" stroke="#7a4b25" stroke-width="5" stroke-linejoin="round"/>
  <path d="M70 96l21-38 23 34M148 96l-21-38-23 34" fill="#ffe0a6" stroke="#7a4b25" stroke-width="5" stroke-linejoin="round"/>
  <path d="M78 94l14-22 13 21M140 94l-12-22-14 21" fill="#f5a96b" opacity=".55"/>
  <path d="M79 126c10 9 21 9 31 0M126 126c10 9 21 9 31 0" fill="none" stroke="#56331d" stroke-width="5" stroke-linecap="round"/>
  <path d="M113 139c4 5 10 5 14 0" fill="none" stroke="#56331d" stroke-width="4" stroke-linecap="round"/>
  <path d="M118 143c-4 9-11 13-22 13M118 143c4 9 11 13 22 13" fill="none" stroke="#56331d" stroke-width="4" stroke-linecap="round"/>
  <path d="M58 168c-23 1-36-11-34-29 2-15 17-20 27-12 9 7 5 23-8 22" fill="none" stroke="#7a4b25" stroke-width="8" stroke-linecap="round"/>
  <path d="M71 179c26 11 65 13 96 0" fill="none" stroke="#fff2ce" stroke-width="8" stroke-linecap="round" opacity=".8"/>
</svg>
