<svg xmlns="http://www.w3.org/2000/svg" viewBox="0 0 360 360" role="img" aria-labelledby="title desc">
  <title id="title">Skynote cover cat</title>
  <desc id="desc">A warm cream cat sitting by a small sun and cloud.</desc>
  <defs>
    <linearGradient id="bg" x1="38" y1="36" x2="314" y2="329" gradientUnits="userSpaceOnUse">
      <stop stop-color="#fff6d9"/>
      <stop offset="1" stop-color="#ffd88b"/>
    </linearGradient>
    <filter id="shadow" x="-20%" y="-20%" width="140%" height="140%">
      <feDropShadow dx="0" dy="12" stdDeviation="12" flood-color="#a86f2c" flood-opacity=".18"/>
    </filter>
  </defs>
  <rect width="360" height="360" rx="64" fill="url(#bg)"/>
  <circle cx="284" cy="74" r="34" fill="#f8b941"/>
  <circle cx="284" cy="74" r="50" fill="#f8b941" opacity=".16"/>
  <path d="M55 121c18-17 42-14 54 2 16-20 48-17 59 7 19-2 36 11 36 29 0 20-16 34-39 34H78c-24 0-41-16-41-36 0-18 8-30 18-36Z" fill="#fff9ed" opacity=".9"/>
  <g filter="url(#shadow)">
    <ellipse cx="181" cy="270" rx="96" ry="26" fill="#bd7b36" opacity=".13"/>
    <path d="M104 154c-16 25-24 61-20 91 7 55 50 75 97 75s90-20 97-75c4-30-4-66-20-91l18-56c3-10-8-18-17-12l-51 32a129 129 0 0 0-54 0l-51-32c-9-6-20 2-17 12l18 56Z" fill="#fff0c7" stroke="#8a572c" stroke-width="7" stroke-linejoin="round"/>
    <path d="M111 122l34 22-27 22-7-44Zm140 0-34 22 27 22 7-44Z" fill="#f7bd7a" opacity=".72"/>
    <path d="M136 204c12 12 26 12 38 0M190 204c12 12 26 12 38 0" fill="none" stroke="#5f3a22" stroke-width="7" stroke-linecap="round"/>
    <path d="M181 219c-6 12-17 19-31 19M181 219c6 12 17 19 31 19" fill="none" stroke="#5f3a22" stroke-width="6" stroke-linecap="round"/>
    <path d="M170 217c6 5 16 5 22 0-2 9-20 9-22 0Z" fill="#a45e43"/>
    <path d="M98 232c-42 0-62-20-58-47 3-22 23-30 39-18 15 12 9 35-9 35" fill="none" stroke="#8a572c" stroke-width="11" stroke-linecap="round"/>
    <path d="M122 264c15 13 42 20 59 20s44-7 59-20" fill="none" stroke="#f4c279" stroke-width="11" stroke-linecap="round" opacity=".65"/>
  </g>
  <path d="M256 238c20-22 50-17 58 7 18 0 31 13 31 29 0 18-15 31-36 31h-68c-20 0-33-13-33-30 0-18 17-34 37-29 3-3 7-6 11-8Z" fill="#fffaf2" opacity=".78"/>
</svg>
